<?xml version="1.0" standalone="no"?>
<!DOCTYPE svg PUBLIC "-//W3C//DTD SVG 20010904//EN"
 "http://www.w3.org/TR/2001/REC-SVG-20010904/DTD/svg10.dtd">
<svg version="1.0" xmlns="http://www.w3.org/2000/svg"
 width="1280.000000pt" height="848.000000pt" viewBox="0 0 1280.000000 848.000000"
 preserveAspectRatio="xMidYMid meet">
<metadata>
Created by potrace 1.15, written by Peter Selinger 2001-2017
</metadata>
<g transform="translate(0.000000,848.000000) scale(0.100000,-0.100000)"
fill="#000000" stroke="none">
<path d="M4193 6864 c-201 -44 -483 -177 -693 -328 -243 -174 -413 -417 -435
-624 -12 -106 33 -250 107 -345 62 -78 226 -175 352 -207 58 -15 264 -39 344
-40 43 -1 -18 -18 -88 -25 -124 -11 -311 -44 -380 -66 -143 -46 -254 -130
-306 -230 -24 -46 -28 -66 -28 -139 -1 -73 3 -92 26 -135 14 -27 40 -63 56
-78 44 -42 186 -109 332 -158 71 -23 129 -43 127 -45 -1 -1 -61 -7 -133 -13
-177 -15 -316 -50 -439 -110 -176 -86 -259 -182 -300 -346 -31 -123 -4 -237
78 -331 62 -71 228 -144 465 -205 101 -26 123 -44 40 -32 -29 4 -141 7 -248 7
-153 0 -210 -3 -265 -17 -192 -48 -328 -169 -388 -345 -23 -70 -25 -211 -2
-307 30 -132 120 -262 271 -396 188 -166 362 -240 688 -294 21 -3 36 -8 33
-11 -2 -3 -84 -11 -180 -19 -299 -24 -580 -90 -757 -177 -172 -84 -276 -206
-300 -353 -5 -32 -7 -69 -4 -82 4 -16 1 -25 -10 -29 -20 -8 -170 9 -376 41
-85 14 -240 29 -345 35 -309 16 -891 39 -1172 46 l-263 6 0 -756 0 -756 6400
0 6400 0 0 338 0 337 -50 23 c-54 24 -121 28 -211 12 -42 -7 -68 -6 -114 6
-33 8 -134 19 -225 24 -160 9 -301 31 -560 90 -85 20 -132 22 -460 27 -241 3
-369 8 -378 15 -9 8 -28 7 -69 -2 -46 -11 -102 -12 -317 -2 -228 10 -532 41
-576 58 -8 3 -125 7 -260 8 -135 2 -288 7 -340 11 -61 5 -127 3 -180 -4 -69
-9 -97 -9 -150 3 -36 8 -155 20 -265 26 -250 15 -249 15 -371 5 -63 -5 -148
-3 -232 4 -98 10 -145 10 -185 1 -38 -8 -73 -8 -118 -1 -35 6 -172 15 -304 21
-136 5 -270 16 -310 25 -38 8 -131 20 -205 25 -74 6 -169 17 -210 25 -110 21
-154 25 -365 35 -104 5 -233 14 -285 20 -69 7 -115 7 -168 -1 -49 -8 -105 -9
-170 -3 -53 4 -130 8 -169 7 -40 -1 -73 2 -73 6 0 5 18 16 40 26 56 25 145
122 180 197 26 54 30 75 30 143 0 112 -12 145 -77 215 -97 105 -246 164 -542
214 -78 13 -144 26 -147 28 -2 2 41 10 95 16 204 26 326 77 415 173 67 72 103
146 116 239 24 171 -48 338 -224 518 -130 134 -283 225 -492 292 -54 18 -108
36 -119 40 -11 4 54 10 145 14 185 8 248 24 336 82 80 53 163 172 199 283 48
149 -27 315 -194 427 -60 40 -220 100 -391 146 l-45 12 45 8 c212 40 309 82
369 158 67 85 85 133 89 241 7 167 -49 320 -160 436 -173 181 -353 244 -737
260 -159 6 -173 15 -41 26 162 13 314 82 423 191 175 175 229 355 197 661 -15
146 -40 248 -84 340 -85 179 -219 297 -383 340 -71 19 -244 18 -330 -1z"/>
</g>
</svg>
